<?xml version="1.0" encoding="UTF-8" standalone="no"?>
<svg
   xmlns:dc="http://purl.org/dc/elements/1.1/"
   xmlns:cc="http://creativecommons.org/ns#"
   xmlns:rdf="http://www.w3.org/1999/02/22-rdf-syntax-ns#"
   xmlns:svg="http://www.w3.org/2000/svg"
   xmlns="http://www.w3.org/2000/svg"
   xmlns:xlink="http://www.w3.org/1999/xlink"
   xmlns:sodipodi="http://sodipodi.sourceforge.net/DTD/sodipodi-0.dtd"
   xmlns:inkscape="http://www.inkscape.org/namespaces/inkscape"
   width="300"
   height="150"
   viewBox="0 0 79.374999 39.6875"
   version="1.1"
   id="svg8"
   sodipodi:docname="brake.svg"
   inkscape:version="1.0.2-2 (e86c870879, 2021-01-15)">
  <sodipodi:namedview
     pagecolor="#ffffff"
     bordercolor="#666666"
     borderopacity="1"
     objecttolerance="10"
     gridtolerance="10"
     guidetolerance="10"
     inkscape:pageopacity="0"
     inkscape:pageshadow="2"
     inkscape:window-width="1500"
     inkscape:window-height="938"
     id="namedview2042"
     showgrid="false"
     inkscape:zoom="3.5233333"
     inkscape:cx="150"
     inkscape:cy="75"
     inkscape:window-x="-6"
     inkscape:window-y="-6"
     inkscape:window-maximized="1"
     inkscape:current-layer="svg8" />
  <defs
     id="defs2">
    <linearGradient
       id="linearGradient1425">
      <stop
         style="stop-color:#1a1a1a;stop-opacity:1;"
         offset="0"
         id="stop1421" />
      <stop
         style="stop-color:#1a1a1a;stop-opacity:0;"
         offset="1"
         id="stop1423" />
    </linearGradient>
    <radialGradient
       xlink:href="#linearGradient1425"
       id="radialGradient1427"
       cx="105"
       cy="148.5"
       fx="105"
       fy="148.5"
       r="19.801743"
       gradientUnits="userSpaceOnUse"
       gradientTransform="matrix(3.1190719,0,0,3.321531,-307.70081,-473.44561)" />
    <radialGradient
       xlink:href="#linearGradient1425"
       id="radialGradient1442"
       gradientUnits="userSpaceOnUse"
       gradientTransform="matrix(8.6394566,0,0,7.9645929,-847.73771,-1162.9403)"
       cx="105"
       cy="148.5"
       fx="105"
       fy="148.5"
       r="19.801743" />
  </defs>
  <metadata
     id="metadata5">
    <rdf:RDF>
      <cc:Work
         rdf:about="">
        <dc:format>image/svg+xml</dc:format>
        <dc:type
           rdf:resource="http://purl.org/dc/dcmitype/StillImage" />
        <dc:title />
      </cc:Work>
    </rdf:RDF>
  </metadata>
  <circle
     style="fill:url(#radialGradient1427);fill-opacity:1;stroke:#000000;stroke-width:0.218017;stroke-miterlimit:4;stroke-dasharray:none"
     id="path833"
     cx="19.801743"
     cy="19.801741"
     r="19.692734" />
  <g
     aria-label="BRAKE"
     id="text1419"
     style="font-style:normal;font-weight:normal;font-size:7.05556px;line-height:1.25;font-family:sans-serif;fill:#999999;fill-opacity:1;stroke:#000000;stroke-width:0.218017;stroke-miterlimit:4;stroke-dasharray:none">
    <path
       d="m 10.78475,17.466355 q 0.479779,0 0.832557,0.148166 0.359833,0.141112 0.543278,0.395112 0.1905,0.246944 0.1905,0.5715 0,0.183445 -0.04939,0.338667 -0.204611,0.712612 -1.178279,0.903112 0.338667,0.09878 0.536223,0.331611 0.197556,0.225778 0.197556,0.564445 0,0.155222 -0.05645,0.366889 -0.155222,0.550334 -0.627945,0.818445 -0.465667,0.261056 -1.326445,0.261056 H 6.911248 q -0.1481668,0 -0.225778,-0.04939 -0.084667,-0.04939 -0.084667,-0.134056 0,-0.04233 0.021167,-0.09172 0.028222,-0.07761 0.091722,-0.119945 0.0635,-0.04233 0.077611,-0.04939 0.112889,-0.07055 0.1834446,-0.141111 0.070556,-0.07761 0.1199445,-0.246945 l 0.8607784,-3.040946 q 0.028222,-0.09172 0.028222,-0.176389 0,-0.07761 -0.028222,-0.127 -0.021167,-0.05644 -0.0635,-0.127 -0.0635,-0.09172 -0.0635,-0.148167 0,-0.02117 0.014111,-0.07761 0.028222,-0.09172 0.1199445,-0.127 0.098778,-0.04233 0.2963335,-0.04233 z m -0.3175,1.291167 q 0.04939,-0.155222 0.04939,-0.289278 0,-0.366889 -0.416278,-0.366889 H 9.7828609 l -0.3739447,1.31939 h 0.3104447 q 0.2963331,0 0.4656671,-0.141111 0.176389,-0.148167 0.282222,-0.522112 z m -0.5150556,2.074335 q 0.049389,-0.169334 0.049389,-0.310445 0,-0.381 -0.4374444,-0.381 h -0.352778 l -0.402167,1.389945 h 0.3598336 q 0.3033891,0 0.4868336,-0.148167 0.1834446,-0.155222 0.2963336,-0.550333 z"
       style="font-style:normal;font-variant:normal;font-weight:normal;font-stretch:normal;font-size:7.05556px;font-family:Shrikhand;-inkscape-font-specification:Shrikhand;fill:#999999;stroke:#000000;stroke-width:0.218017;stroke-miterlimit:4;stroke-dasharray:none"
       id="path2615" />
    <path
       d="m 17.543975,18.898633 q -0.112889,0.409223 -0.423334,0.642056 -0.310445,0.225778 -0.783167,0.282223 0.338667,0.02822 0.508,0.197555 0.169334,0.169334 0.169334,0.444501 0,0.105833 -0.03528,0.261055 l -0.07761,0.345723 q -0.01411,0.07055 -0.01411,0.09878 0,0.09172 0.04233,0.141111 0.04233,0.04233 0.119945,0.04233 0.148166,0 0.211666,0.04233 0.07056,0.04233 0.04939,0.155222 -0.02822,0.162278 -0.169333,0.3175 -0.141111,0.155222 -0.402167,0.261056 -0.254,0.09878 -0.620889,0.09878 -0.465667,0 -0.740834,-0.204612 -0.275167,-0.211666 -0.275167,-0.599722 0,-0.148167 0.04233,-0.3175 l 0.112889,-0.451556 q 0.02822,-0.09172 0.02822,-0.1905 0,-0.162278 -0.112888,-0.232834 -0.105834,-0.07055 -0.345723,-0.07055 h -0.268111 l -0.324556,1.171222 q -0.01411,0.04233 -0.01411,0.105834 0,0.09878 0.04939,0.169333 0.04939,0.07056 0.134055,0.148167 0.0635,0.04939 0.09878,0.09878 0.03528,0.04233 0.03528,0.09172 0,0.119945 -0.112889,0.169334 -0.112889,0.04939 -0.331611,0.04939 H 12.32286 q -0.183444,0 -0.275167,-0.0635 -0.09172,-0.07056 -0.0635,-0.190501 0.01411,-0.0635 0.05645,-0.09878 0.03528,-0.04233 0.112889,-0.09172 0.119944,-0.07055 0.1905,-0.148166 0.07056,-0.07761 0.112889,-0.23989 l 0.860778,-3.040946 q 0.02822,-0.09172 0.02822,-0.176389 0,-0.07761 -0.02822,-0.127 -0.02117,-0.05644 -0.0635,-0.127 -0.0635,-0.09172 -0.0635,-0.148167 0,-0.02117 0.01411,-0.07761 0.02822,-0.09172 0.119945,-0.127 0.09878,-0.04233 0.296333,-0.04233 h 2.363613 q 0.486834,0 0.846667,0.148166 0.366889,0.148167 0.557389,0.409223 0.197556,0.254 0.197556,0.578556 0,0.148166 -0.04233,0.296333 z m -1.806224,-0.07055 q 0.03528,-0.162278 0.03528,-0.246945 0,-0.373945 -0.409222,-0.373945 h -0.296334 l -0.310445,1.248835 h 0.296334 q 0.275167,0 0.430389,-0.134056 0.162278,-0.134056 0.254,-0.493889 z"
       style="font-style:normal;font-variant:normal;font-weight:normal;font-stretch:normal;font-size:7.05556px;font-family:Shrikhand;-inkscape-font-specification:Shrikhand;fill:#999999;stroke:#000000;stroke-width:0.218017;stroke-miterlimit:4;stroke-dasharray:none"
       id="path2617" />
    <path
       d="m 21.819637,21.332801 q -0.02822,0.09172 -0.02822,0.183445 0,0.07761 0.02117,0.134056 0.02117,0.04939 0.04233,0.08467 0.02822,0.02822 0.03528,0.04233 0.07056,0.07056 0.07056,0.141111 0,0.01411 -0.01411,0.07056 -0.02822,0.09878 -0.127,0.141111 -0.09172,0.03528 -0.289278,0.03528 h -1.672168 q -0.148167,0 -0.232834,-0.04939 -0.07761,-0.04939 -0.07761,-0.134056 0,-0.04233 0.02117,-0.09172 0.02117,-0.05645 0.05644,-0.08467 0.04233,-0.03528 0.112889,-0.07761 0.112889,-0.0635 0.183445,-0.141111 0.07056,-0.07761 0.119944,-0.254001 l 0.183445,-0.606778 h -1.100667 l -0.1905,0.402167 q -0.119945,0.261056 -0.119945,0.409223 0,0.08467 0.02822,0.141111 0.02822,0.04939 0.08467,0.105833 0.04939,0.05645 0.0635,0.09878 0.02117,0.03528 0.0071,0.09878 -0.02822,0.105833 -0.119945,0.148167 -0.08467,0.03528 -0.275167,0.03528 h -1.051278 q -0.162278,0 -0.246945,-0.05645 -0.08467,-0.0635 -0.08467,-0.162278 0,-0.112889 0.08467,-0.176389 0.07761,-0.07055 0.239889,-0.148167 0.211667,-0.105833 0.338667,-0.204611 0.127,-0.105833 0.218722,-0.289278 l 1.25589,-2.603501 q 0.289278,-0.606779 0.677334,-0.87489 0.395111,-0.275167 1.037167,-0.275167 0.719667,0 1.114779,0.296334 0.395111,0.289278 0.395111,0.811389 0,0.218723 -0.07056,0.451556 z m -1.38289,-1.312334 0.373945,-1.241778 q 0.02822,-0.08467 0.02822,-0.176389 0,-0.134056 -0.07761,-0.197556 -0.07056,-0.07056 -0.204612,-0.07056 -0.169333,0 -0.289278,0.09878 -0.119944,0.09878 -0.239889,0.352778 l -0.578556,1.234723 z"
       style="font-style:normal;font-variant:normal;font-weight:normal;font-stretch:normal;font-size:7.05556px;font-family:Shrikhand;-inkscape-font-specification:Shrikhand;fill:#999999;stroke:#000000;stroke-width:0.218017;stroke-miterlimit:4;stroke-dasharray:none"
       id="path2619" />
    <path
       d="m 27.527583,17.438132 q 0.296333,0 0.493889,0.1905 0.197556,0.190501 0.197556,0.515056 0,0.366889 -0.218723,0.592667 -0.218722,0.225778 -0.522111,0.225778 -0.197556,0 -0.338667,-0.07056 -0.141111,-0.07056 -0.268111,-0.225778 l -0.606779,0.508 0.68439,2.024946 q 0.0635,0.176389 0.134055,0.282222 0.07761,0.105834 0.183445,0.211667 0.07761,0.07761 0.105833,0.127 0.03528,0.04233 0.03528,0.105834 0,0.112889 -0.105833,0.176389 -0.09878,0.0635 -0.352778,0.0635 h -0.924279 q -0.345722,0 -0.515056,-0.148167 -0.162277,-0.155222 -0.268111,-0.508001 l -0.352778,-1.185334 -0.204611,0.169334 -0.232834,0.839611 q -0.02822,0.09172 -0.02822,0.176389 0,0.08467 0.02117,0.141112 0.02822,0.05644 0.07761,0.119944 0.0635,0.09172 0.0635,0.148167 0,0.01411 -0.01411,0.07056 -0.02822,0.09878 -0.127,0.141111 -0.09878,0.03528 -0.296334,0.03528 h -1.658056 q -0.148167,0 -0.225778,-0.04939 -0.08467,-0.04939 -0.08467,-0.134056 0,-0.04233 0.02117,-0.09172 0.02822,-0.07761 0.09172,-0.119945 0.0635,-0.04233 0.07761,-0.04939 0.112889,-0.07055 0.183445,-0.141111 0.07056,-0.07761 0.119944,-0.246945 l 0.860779,-3.040946 q 0.02822,-0.09172 0.02822,-0.176389 0,-0.07761 -0.02822,-0.127 -0.02117,-0.05644 -0.0635,-0.127 -0.0635,-0.09172 -0.0635,-0.148167 0,-0.02117 0.01411,-0.07761 0.02822,-0.09172 0.119944,-0.127 0.09878,-0.04233 0.296334,-0.04233 h 1.658056 q 0.148167,0 0.225778,0.04939 0.08467,0.04233 0.08467,0.127001 0,0.03528 -0.02117,0.09172 -0.02117,0.04939 -0.0635,0.09172 -0.03528,0.03528 -0.07055,0.05645 -0.02822,0.01411 -0.04233,0.02822 -0.112889,0.0635 -0.183444,0.141111 -0.07056,0.07761 -0.119945,0.239889 l -0.296333,1.051279 1.869723,-1.615724 q 0.183445,-0.155222 0.331611,-0.218722 0.148167,-0.07056 0.317501,-0.07056 z"
       style="font-style:normal;font-variant:normal;font-weight:normal;font-stretch:normal;font-size:7.05556px;font-family:Shrikhand;-inkscape-font-specification:Shrikhand;fill:#999999;stroke:#000000;stroke-width:0.218017;stroke-miterlimit:4;stroke-dasharray:none"
       id="path2621" />
    <path
       d="m 32.452352,17.466355 q 0.261056,0 0.402167,0.112889 0.148167,0.112888 0.148167,0.310444 0,0.09878 -0.02822,0.1905 l -0.183445,0.656167 q -0.04939,0.1905 -0.148167,0.268112 -0.09172,0.07055 -0.268111,0.07055 -0.169334,0 -0.268111,-0.07055 -0.09172,-0.07761 -0.141112,-0.246945 l -0.112889,-0.402167 q -0.03528,-0.127 -0.08467,-0.169333 -0.04939,-0.04233 -0.1905,-0.04233 h -0.740834 l -0.352778,1.25589 h 0.310444 q 0.04939,0 0.134056,-0.07056 l 0.239889,-0.211666 q 0.105834,-0.09172 0.183445,-0.134056 0.07761,-0.04233 0.1905,-0.04233 0.127,0 0.204611,0.07055 0.08467,0.0635 0.08467,0.169334 0,0.02822 -0.01411,0.08467 l -0.289278,0.980723 q -0.04233,0.155223 -0.148167,0.232834 -0.09878,0.07056 -0.218722,0.07056 -0.197556,0 -0.296334,-0.204611 l -0.119944,-0.246945 q -0.04939,-0.105833 -0.155223,-0.105833 h -0.275167 l -0.416278,1.495779 h 0.62089 q 0.134055,0 0.232833,-0.04939 0.105833,-0.05645 0.225778,-0.1905 l 0.423334,-0.465667 q 0.112889,-0.119945 0.211666,-0.169334 0.105834,-0.05644 0.254001,-0.05644 0.155222,0 0.254,0.07055 0.09878,0.07056 0.09878,0.211667 0,0.05645 -0.02117,0.134056 l -0.204611,0.712612 q -0.07761,0.268111 -0.225778,0.373944 -0.148167,0.105834 -0.430389,0.105834 h -3.365503 q -0.148166,0 -0.225778,-0.04939 -0.08467,-0.04939 -0.08467,-0.134056 0,-0.04233 0.02117,-0.09172 0.02822,-0.07761 0.09172,-0.119945 0.0635,-0.04233 0.07761,-0.04939 0.112889,-0.07055 0.183444,-0.141111 0.07056,-0.07761 0.119945,-0.246945 l 0.867834,-3.040946 q 0.02822,-0.09172 0.02822,-0.169333 0,-0.08467 -0.02822,-0.141112 -0.02117,-0.05644 -0.07056,-0.119944 -0.0635,-0.09172 -0.0635,-0.148167 0,-0.02117 0.01411,-0.07761 0.02822,-0.09172 0.127,-0.127 0.09878,-0.04233 0.289278,-0.04233 z"
       style="font-style:normal;font-variant:normal;font-weight:normal;font-stretch:normal;font-size:7.05556px;font-family:Shrikhand;-inkscape-font-specification:Shrikhand;fill:#999999;stroke:#000000;stroke-width:0.218017;stroke-miterlimit:4;stroke-dasharray:none"
       id="path2623" />
  </g>
  <circle
     style="fill:url(#radialGradient1442);fill-opacity:1;stroke:#000000;stroke-width:0.218017;stroke-miterlimit:4;stroke-dasharray:none"
     id="circle1434"
     cx="59.405228"
     cy="19.801741"
     r="19.692734" />
  <g
     aria-label="BRAKE"
     id="text1438"
     style="font-style:normal;font-weight:normal;font-size:7.05556px;line-height:1.25;font-family:sans-serif;fill:#999999;fill-opacity:1;stroke:#000000;stroke-width:0.218017;stroke-miterlimit:4;stroke-dasharray:none">
    <path
       d="m 50.388228,17.466355 q 0.479779,0 0.832557,0.148166 0.359833,0.141112 0.543278,0.395112 0.1905,0.246944 0.1905,0.5715 0,0.183445 -0.04939,0.338667 -0.204611,0.712612 -1.178279,0.903112 0.338667,0.09878 0.536223,0.331611 0.197556,0.225778 0.197556,0.564445 0,0.155222 -0.05644,0.366889 -0.155222,0.550334 -0.627945,0.818445 -0.465667,0.261056 -1.326445,0.261056 h -2.935113 q -0.148167,0 -0.225778,-0.04939 -0.08467,-0.04939 -0.08467,-0.134056 0,-0.04233 0.02117,-0.09172 0.02822,-0.07761 0.09172,-0.119945 0.0635,-0.04233 0.07761,-0.04939 0.112889,-0.07055 0.183445,-0.141111 0.07056,-0.07761 0.119944,-0.246945 l 0.860779,-3.040946 q 0.02822,-0.09172 0.02822,-0.176389 0,-0.07761 -0.02822,-0.127 -0.02117,-0.05644 -0.0635,-0.127 -0.0635,-0.09172 -0.0635,-0.148167 0,-0.02117 0.01411,-0.07761 0.02822,-0.09172 0.119944,-0.127 0.09878,-0.04233 0.296334,-0.04233 z m -0.3175,1.291167 q 0.04939,-0.155222 0.04939,-0.289278 0,-0.366889 -0.416278,-0.366889 h -0.3175 l -0.373945,1.31939 h 0.310445 q 0.296333,0 0.465667,-0.141111 0.176389,-0.148167 0.282222,-0.522112 z m -0.515056,2.074335 q 0.04939,-0.169334 0.04939,-0.310445 0,-0.381 -0.437444,-0.381 h -0.352778 l -0.402167,1.389945 h 0.359833 q 0.303389,0 0.486834,-0.148167 0.183444,-0.155222 0.296333,-0.550333 z"
       style="font-style:normal;font-variant:normal;font-weight:normal;font-stretch:normal;font-size:7.05556px;font-family:Shrikhand;-inkscape-font-specification:Shrikhand;fill:#999999;stroke:#000000;stroke-width:0.218017;stroke-miterlimit:4;stroke-dasharray:none"
       id="path2626" />
    <path
       d="m 57.147453,18.898633 q -0.112889,0.409223 -0.423334,0.642056 -0.310445,0.225778 -0.783167,0.282223 0.338667,0.02822 0.508,0.197555 0.169334,0.169334 0.169334,0.444501 0,0.105833 -0.03528,0.261055 l -0.07761,0.345723 q -0.01411,0.07055 -0.01411,0.09878 0,0.09172 0.04233,0.141111 0.04233,0.04233 0.119944,0.04233 0.148167,0 0.211667,0.04233 0.07056,0.04233 0.04939,0.155222 -0.02822,0.162278 -0.169333,0.3175 -0.141111,0.155222 -0.402167,0.261056 -0.254,0.09878 -0.620889,0.09878 -0.465667,0 -0.740834,-0.204612 -0.275167,-0.211666 -0.275167,-0.599722 0,-0.148167 0.04233,-0.3175 l 0.112889,-0.451556 q 0.02822,-0.09172 0.02822,-0.1905 0,-0.162278 -0.112889,-0.232834 -0.105833,-0.07055 -0.345722,-0.07055 h -0.268111 l -0.324556,1.171222 q -0.01411,0.04233 -0.01411,0.105834 0,0.09878 0.04939,0.169333 0.04939,0.07056 0.134055,0.148167 0.0635,0.04939 0.09878,0.09878 0.03528,0.04233 0.03528,0.09172 0,0.119945 -0.112889,0.169334 -0.112889,0.04939 -0.331611,0.04939 h -1.770946 q -0.183444,0 -0.275167,-0.0635 -0.09172,-0.07056 -0.0635,-0.190501 0.01411,-0.0635 0.05644,-0.09878 0.03528,-0.04233 0.112889,-0.09172 0.119944,-0.07055 0.1905,-0.148166 0.07055,-0.07761 0.112889,-0.23989 l 0.860778,-3.040946 q 0.02822,-0.09172 0.02822,-0.176389 0,-0.07761 -0.02822,-0.127 -0.02117,-0.05644 -0.0635,-0.127 -0.0635,-0.09172 -0.0635,-0.148167 0,-0.02117 0.01411,-0.07761 0.02822,-0.09172 0.119945,-0.127 0.09878,-0.04233 0.296333,-0.04233 h 2.363613 q 0.486834,0 0.846667,0.148166 0.366889,0.148167 0.557389,0.409223 0.197556,0.254 0.197556,0.578556 0,0.148166 -0.04233,0.296333 z m -1.806224,-0.07055 q 0.03528,-0.162278 0.03528,-0.246945 0,-0.373945 -0.409222,-0.373945 h -0.296334 l -0.310445,1.248835 h 0.296334 q 0.275167,0 0.430389,-0.134056 0.162278,-0.134056 0.254,-0.493889 z"
       style="font-style:normal;font-variant:normal;font-weight:normal;font-stretch:normal;font-size:7.05556px;font-family:Shrikhand;-inkscape-font-specification:Shrikhand;fill:#999999;stroke:#000000;stroke-width:0.218017;stroke-miterlimit:4;stroke-dasharray:none"
       id="path2628" />
    <path
       d="m 61.423115,21.332801 q -0.02822,0.09172 -0.02822,0.183445 0,0.07761 0.02117,0.134056 0.02117,0.04939 0.04233,0.08467 0.02822,0.02822 0.03528,0.04233 0.07056,0.07056 0.07056,0.141111 0,0.01411 -0.01411,0.07056 -0.02822,0.09878 -0.127,0.141111 -0.09172,0.03528 -0.289278,0.03528 h -1.672168 q -0.148167,0 -0.232834,-0.04939 -0.07761,-0.04939 -0.07761,-0.134056 0,-0.04233 0.02117,-0.09172 0.02117,-0.05645 0.05644,-0.08467 0.04233,-0.03528 0.112889,-0.07761 0.112889,-0.0635 0.183445,-0.141111 0.07056,-0.07761 0.119944,-0.254001 l 0.183445,-0.606778 h -1.100667 l -0.1905,0.402167 q -0.119945,0.261056 -0.119945,0.409223 0,0.08467 0.02822,0.141111 0.02822,0.04939 0.08467,0.105833 0.04939,0.05645 0.0635,0.09878 0.02117,0.03528 0.0071,0.09878 -0.02822,0.105833 -0.119945,0.148167 -0.08467,0.03528 -0.275167,0.03528 h -1.051278 q -0.162278,0 -0.246945,-0.05645 -0.08467,-0.0635 -0.08467,-0.162278 0,-0.112889 0.08467,-0.176389 0.07761,-0.07055 0.239889,-0.148167 0.211667,-0.105833 0.338667,-0.204611 0.127,-0.105833 0.218722,-0.289278 l 1.25589,-2.603501 q 0.289278,-0.606779 0.677334,-0.87489 0.395111,-0.275167 1.037167,-0.275167 0.719667,0 1.114779,0.296334 0.395111,0.289278 0.395111,0.811389 0,0.218723 -0.07056,0.451556 z m -1.38289,-1.312334 0.373944,-1.241778 q 0.02822,-0.08467 0.02822,-0.176389 0,-0.134056 -0.07761,-0.197556 -0.07056,-0.07056 -0.204612,-0.07056 -0.169333,0 -0.289278,0.09878 -0.119944,0.09878 -0.239889,0.352778 l -0.578556,1.234723 z"
       style="font-style:normal;font-variant:normal;font-weight:normal;font-stretch:normal;font-size:7.05556px;font-family:Shrikhand;-inkscape-font-specification:Shrikhand;fill:#999999;stroke:#000000;stroke-width:0.218017;stroke-miterlimit:4;stroke-dasharray:none"
       id="path2630" />
    <path
       d="m 67.131061,17.438132 q 0.296333,0 0.493889,0.1905 0.197556,0.190501 0.197556,0.515056 0,0.366889 -0.218723,0.592667 -0.218722,0.225778 -0.522111,0.225778 -0.197556,0 -0.338667,-0.07056 -0.141111,-0.07056 -0.268111,-0.225778 l -0.606779,0.508 0.68439,2.024946 q 0.0635,0.176389 0.134055,0.282222 0.07761,0.105834 0.183445,0.211667 0.07761,0.07761 0.105833,0.127 0.03528,0.04233 0.03528,0.105834 0,0.112889 -0.105833,0.176389 -0.09878,0.0635 -0.352778,0.0635 h -0.924279 q -0.345722,0 -0.515056,-0.148167 -0.162277,-0.155222 -0.268111,-0.508001 l -0.352778,-1.185334 -0.204611,0.169334 -0.232834,0.839611 q -0.02822,0.09172 -0.02822,0.176389 0,0.08467 0.02117,0.141112 0.02822,0.05644 0.07761,0.119944 0.0635,0.09172 0.0635,0.148167 0,0.01411 -0.01411,0.07056 -0.02822,0.09878 -0.127,0.141111 -0.09878,0.03528 -0.296334,0.03528 h -1.658056 q -0.148167,0 -0.225778,-0.04939 -0.08467,-0.04939 -0.08467,-0.134056 0,-0.04233 0.02117,-0.09172 0.02822,-0.07761 0.09172,-0.119945 0.0635,-0.04233 0.07761,-0.04939 0.112889,-0.07055 0.183445,-0.141111 0.07055,-0.07761 0.119944,-0.246945 l 0.860779,-3.040946 q 0.02822,-0.09172 0.02822,-0.176389 0,-0.07761 -0.02822,-0.127 -0.02117,-0.05644 -0.0635,-0.127 -0.0635,-0.09172 -0.0635,-0.148167 0,-0.02117 0.01411,-0.07761 0.02822,-0.09172 0.119944,-0.127 0.09878,-0.04233 0.296334,-0.04233 h 1.658056 q 0.148167,0 0.225778,0.04939 0.08467,0.04233 0.08467,0.127001 0,0.03528 -0.02117,0.09172 -0.02117,0.04939 -0.0635,0.09172 -0.03528,0.03528 -0.07055,0.05645 -0.02822,0.01411 -0.04233,0.02822 -0.112889,0.0635 -0.183444,0.141111 -0.07056,0.07761 -0.119945,0.239889 l -0.296333,1.051279 1.869723,-1.615724 q 0.183445,-0.155222 0.331611,-0.218722 0.148167,-0.07056 0.317501,-0.07056 z"
       style="font-style:normal;font-variant:normal;font-weight:normal;font-stretch:normal;font-size:7.05556px;font-family:Shrikhand;-inkscape-font-specification:Shrikhand;fill:#999999;stroke:#000000;stroke-width:0.218017;stroke-miterlimit:4;stroke-dasharray:none"
       id="path2632" />
    <path
       d="m 72.05583,17.466355 q 0.261056,0 0.402167,0.112889 0.148167,0.112888 0.148167,0.310444 0,0.09878 -0.02822,0.1905 l -0.183444,0.656167 q -0.04939,0.1905 -0.148167,0.268112 -0.09172,0.07055 -0.268111,0.07055 -0.169334,0 -0.268111,-0.07055 -0.09172,-0.07761 -0.141112,-0.246945 l -0.112889,-0.402167 q -0.03528,-0.127 -0.08467,-0.169333 -0.04939,-0.04233 -0.1905,-0.04233 h -0.740834 l -0.352778,1.25589 h 0.310444 q 0.04939,0 0.134056,-0.07056 l 0.239889,-0.211666 q 0.105833,-0.09172 0.183445,-0.134056 0.07761,-0.04233 0.1905,-0.04233 0.127,0 0.204611,0.07055 0.08467,0.0635 0.08467,0.169334 0,0.02822 -0.01411,0.08467 l -0.289278,0.980723 q -0.04233,0.155223 -0.148167,0.232834 -0.09878,0.07056 -0.218722,0.07056 -0.197556,0 -0.296334,-0.204611 l -0.119945,-0.246945 q -0.04939,-0.105833 -0.155222,-0.105833 h -0.275167 l -0.416278,1.495779 h 0.62089 q 0.134055,0 0.232833,-0.04939 0.105833,-0.05645 0.225778,-0.1905 l 0.423334,-0.465667 q 0.112889,-0.119945 0.211666,-0.169334 0.105834,-0.05644 0.254001,-0.05644 0.155222,0 0.254,0.07055 0.09878,0.07056 0.09878,0.211667 0,0.05645 -0.02117,0.134056 l -0.204611,0.712612 q -0.07761,0.268111 -0.225778,0.373944 -0.148167,0.105834 -0.430389,0.105834 h -3.365503 q -0.148166,0 -0.225778,-0.04939 -0.08467,-0.04939 -0.08467,-0.134056 0,-0.04233 0.02117,-0.09172 0.02822,-0.07761 0.09172,-0.119945 0.0635,-0.04233 0.07761,-0.04939 0.112889,-0.07055 0.183444,-0.141111 0.07056,-0.07761 0.119945,-0.246945 l 0.867834,-3.040946 q 0.02822,-0.09172 0.02822,-0.169333 0,-0.08467 -0.02822,-0.141112 -0.02117,-0.05644 -0.07056,-0.119944 -0.0635,-0.09172 -0.0635,-0.148167 0,-0.02117 0.01411,-0.07761 0.02822,-0.09172 0.127,-0.127 0.09878,-0.04233 0.289278,-0.04233 z"
       style="font-style:normal;font-variant:normal;font-weight:normal;font-stretch:normal;font-size:7.05556px;font-family:Shrikhand;-inkscape-font-specification:Shrikhand;fill:#999999;stroke:#000000;stroke-width:0.218017;stroke-miterlimit:4;stroke-dasharray:none"
       id="path2634" />
  </g>
</svg>
